<svg xmlns="http://www.w3.org/2000/svg" viewBox="0 0 64 64" role="img" aria-label="Cenvy">
  <rect width="64" height="64" rx="14" fill="#041f17"/>
  <path d="M45 18c-3.6-3.7-8-5.5-13.1-5.5-5.6 0-10.3 1.9-14 5.7-3.7 3.8-5.6 8.5-5.6 14.1 0 5.5 1.9 10.2 5.6 13.9 3.7 3.8 8.4 5.7 14 5.7 5.3 0 9.8-1.9 13.4-5.8l-6.2-6.2c-1.9 2.1-4.2 3.2-7 3.2-3 0-5.5-1-7.4-3.1-1.9-2-2.9-4.6-2.9-7.8 0-3.2 1-5.8 2.9-7.9 2-2.1 4.4-3.1 7.4-3.1 2.8 0 5.1 1 6.9 3.1L45 18Z" fill="#ffffff"/>
  <path d="M47.7 37.8c-1.2 4-3.2 7.2-6.1 9.7-2.8 2.4-6.1 3.6-9.9 3.6-5.3 0-9.8-1.8-13.3-5.5-3.6-3.6-5.4-8.1-5.4-13.4 0-5.4 1.8-9.9 5.4-13.5 3.6-3.7 8-5.5 13.3-5.5 3.8 0 7.1 1.2 9.9 3.6 2.8 2.4 4.8 5.5 6 9.5h-9.4c-1.3-2.7-3.5-4.1-6.5-4.1-2.9 0-5.2.9-6.9 2.8-1.8 1.8-2.7 4.2-2.7 7.2 0 2.9.9 5.3 2.7 7.1 1.8 1.9 4.1 2.8 6.9 2.8 3 0 5.2-1.4 6.5-4.3h9.5Z" fill="#ff2da8"/>
</svg>
